<?xml version="1.0" encoding="UTF-8"?>
<svg xmlns="http://www.w3.org/2000/svg" viewBox="0 0 64 64" role="img" aria-label="ByteBack">
  <defs>
    <linearGradient id="disk" x1="0%" y1="0%" x2="100%" y2="100%">
      <stop offset="0%" stop-color="#4a90d9"/>
      <stop offset="100%" stop-color="#2f5f9e"/>
    </linearGradient>
    <linearGradient id="arrow" x1="0%" y1="0%" x2="100%" y2="0%">
      <stop offset="0%" stop-color="#5fd38d"/>
      <stop offset="100%" stop-color="#2f9e62"/>
    </linearGradient>
  </defs>
  <rect x="4" y="4" width="56" height="56" rx="12" fill="#1f2937"/>
  <ellipse cx="32" cy="30" rx="20" ry="7" fill="url(#disk)"/>
  <rect x="12" y="24" width="40" height="16" rx="4" fill="url(#disk)"/>
  <circle cx="32" cy="32" r="6" fill="#dbeafe"/>
  <circle cx="32" cy="32" r="2.5" fill="#1f2937"/>
  <path d="M38 42h12a4 4 0 0 1 4 4v6H38z" fill="#374151"/>
  <path d="M18 46c0-4 3-7 7-7h8" fill="none" stroke="url(#arrow)" stroke-width="4" stroke-linecap="round"/>
  <polygon points="18,46 24,42 24,50" fill="url(#arrow)"/>
  <rect x="44" y="44" width="10" height="12" rx="2" fill="#9ca3af"/>
</svg>
